<svg xmlns="http://www.w3.org/2000/svg" xmlns:xlink="http://www.w3.org/1999/xlink" version="1.1" width="1224pt" height="216pt" viewBox="0 0 1224 216">
<defs>
<clipPath id="clip_0">
<path transform="matrix(1,0,0,-1,0,216)" d="M0 0H1224V216H0Z"/>
</clipPath>
</defs>
<g clip-path="url(#clip_0)">
<path transform="matrix(1,0,0,-1,83.6217,30.744202)" d="M0 0C-6.275 8.975-15.425 13.464-27.451 13.464-32.509 13.464-36.994 12.721-40.916 11.242-44.837 9.759-48.542 7.623-52.027 4.837-56.385 .825-59.739-5.143-62.092-13.072-64.445-21.005-65.622-30.196-65.622-40.654-65.622-48.673-64.796-56.3-63.138-63.53-61.484-70.765-59.261-76.3-56.471-80.132-52.987-84.315-48.804-87.583-43.922-89.936-39.045-92.289-33.816-93.465-28.236-93.465-26.144-93.465-24.665-93.294-23.791-92.942-28.325-104.446-33.946-114.556-40.654-123.269-47.366-131.987-55.687-140.524-65.622-148.891L-53.334-167.976C-11.503-133.988 9.412-90.941 9.412-38.824 9.412-21.92 6.275-8.979 0 0M-16.863-63.53C-19.216-68.326-23.007-70.72-28.236-70.72-33.117-70.72-36.777-68.498-39.216-64.053-41.659-59.609-42.876-52.68-42.876-43.268-42.876-31.418-41.7-22.79-39.347-17.386-36.994-11.985-33.293-9.281-28.236-9.281-24.053-9.281-20.744-11.111-18.301-14.771-14.992-18.084-13.333-26.712-13.333-40.654-13.333-51.112-14.51-58.738-16.863-63.53M102.744-12.418V10.327H27.188V-12.418H79.999C74.594-22.876 69.888-33.726 65.881-44.968 61.869-56.21 58.516-68.02 55.815-80.393 53.111-92.771 50.979-105.973 49.41-120.001 47.842-134.033 46.796-148.98 46.273-164.839H69.018C69.541-148.458 70.497-133.511 71.894-120.001 73.287-106.496 75.293-93.727 77.907-81.7 80.522-69.674 83.875-58.085 87.973-46.929 92.066-35.777 96.992-24.273 102.744-12.418M197.514-89.151C195.161-82.092 191.803-75.777 187.449-70.197 191.281-66.189 193.985-61.398 195.554-55.818 197.122-50.242 197.906-43.791 197.906-36.471 197.906-21.136 194.81-8.979 188.625 0 182.437 8.975 173.854 13.464 162.873 13.464 152.416 13.464 144.091 8.93 137.906-.131 131.717-9.195 128.625-21.307 128.625-36.471 128.625-44.143 129.409-50.589 130.978-55.818 132.546-61.046 135.246-65.842 139.082-70.197 134.724-75.777 131.37-82.223 129.017-89.544 126.664-96.864 125.487-104.969 125.487-113.858 125.487-120.308 126.182-126.627 127.579-132.812 128.972-139.001 130.716-144.36 132.808-148.891 135.945-155.341 139.907-160.133 144.703-163.27 149.495-166.407 155.814-167.976 163.658-167.976 169.409-167.976 174.463-166.93 178.821-164.839 183.176-162.747 186.926-159.7 190.063-155.688 193.548-150.982 196.248-144.928 198.168-137.518 200.084-130.112 201.044-122.224 201.044-113.858 201.044-104.446 199.867-96.21 197.514-89.151M163.658-61.046C155.463-61.046 151.37-53.203 151.37-37.517 151.37-28.281 152.326-21.267 154.246-16.471 156.162-11.679 159.299-9.281 163.658-9.281 167.665-9.281 170.586-11.679 172.416-16.471 174.246-21.267 175.161-28.281 175.161-37.517 175.161-53.203 171.325-61.046 163.658-61.046M174.377-136.995C171.762-142.485 168.188-145.23 163.658-145.23 158.6-145.23 154.769-142.485 152.154-136.995 149.54-131.505 148.233-123.792 148.233-113.858 148.233-93.816 153.372-83.792 163.658-83.792 168.188-83.792 171.762-86.32 174.377-91.374 176.991-96.431 178.298-103.923 178.298-113.858 178.298-123.792 176.991-131.505 174.377-136.995M254.638-164.839V10.327H238.429C235.463 7.19 232.501 4.792 229.54 3.137 226.574 1.479 222.828 .216 218.298-.654V-14.249H232.416V-164.839ZM354.113-89.151C351.76-82.092 348.402-75.777 344.048-70.197 347.879-66.189 350.584-61.398 352.152-55.818 353.721-50.242 354.505-43.791 354.505-36.471 354.505-21.136 351.409-8.979 345.224 0 339.035 8.975 330.453 13.464 319.472 13.464 309.015 13.464 300.689 8.93 294.505-.131 288.316-9.195 285.224-21.307 285.224-36.471 285.224-44.143 286.008-50.589 287.577-55.818 289.145-61.046 291.845-65.842 295.681-70.197 291.322-75.777 287.969-82.223 285.616-89.544 283.263-96.864 282.086-104.969 282.086-113.858 282.086-120.308 282.781-126.627 284.178-132.812 285.571-139.001 287.315-144.36 289.407-148.891 292.544-155.341 296.506-160.133 301.302-163.27 306.094-166.407 312.413-167.976 320.257-167.976 326.008-167.976 331.061-166.93 335.42-164.839 339.775-162.747 343.525-159.7 346.662-155.688 350.147-150.982 352.847-144.928 354.767-137.518 356.683-130.112 357.643-122.224 357.643-113.858 357.643-104.446 356.466-96.21 354.113-89.151M320.257-61.046C312.062-61.046 307.969-53.203 307.969-37.517 307.969-28.281 308.925-21.267 310.845-16.471 312.761-11.679 315.898-9.281 320.257-9.281 324.264-9.281 327.185-11.679 329.015-16.471 330.845-21.267 331.76-28.281 331.76-37.517 331.76-53.203 327.924-61.046 320.257-61.046M330.976-136.995C328.361-142.485 324.787-145.23 320.257-145.23 315.199-145.23 311.368-142.485 308.753-136.995 306.139-131.505 304.832-123.792 304.832-113.858 304.832-93.816 309.971-83.792 320.257-83.792 324.787-83.792 328.361-86.32 330.976-91.374 333.59-96.431 334.897-103.923 334.897-113.858 334.897-123.792 333.59-131.505 330.976-136.995M445.747-95.165C445.049-89.327 443.741-84.315 441.825-80.132 440.951-78.216 439.865-76.431 438.557-74.772 437.25-73.118 435.461-71.157 433.198-68.89 436.682-62.791 439.121-56.863 440.518-51.112 441.911-45.36 442.61-38.652 442.61-30.981 442.61-1.352 430.494 13.464 406.27 13.464 396.335 13.464 388.271 10.413 382.086 4.314 375.897-1.789 372.454-10.241 371.759-21.046H394.505C394.852-17.386 396.028-14.51 398.034-12.418 400.036-10.327 402.781-9.281 406.27-9.281 415.33-9.281 419.864-16.516 419.864-30.981 419.864-41.091 418.598-48.105 416.074-52.027 413.545-55.948 409.231-57.909 403.132-57.909H397.642V-80.655H404.962C408.623-80.655 411.715-81.177 414.243-82.223 416.768-83.269 418.729-85.099 420.126-87.713 421.519-90.328 422.52-93.902 423.132-98.433 423.741-102.967 424.048-108.719 424.048-115.688 424.048-126.145 422.871-133.686 420.518-138.302 418.165-142.922 414.023-145.23 408.1-145.23 404.439-145.23 401.343-144.013 398.818-141.57 396.29-139.132 394.852-135.994 394.505-132.158H371.759C371.759-138.261 373.589-144.013 377.25-149.413 381.081-155.516 385.44-160.133 390.322-163.27 395.199-166.407 400.951-167.976 407.577-167.976 414.897-167.976 420.649-167.016 424.832-165.1 429.015-163.184 432.847-160.222 436.335-156.211 439.82-151.856 442.434-146.19 444.178-139.217 445.919-132.248 446.793-124.405 446.793-115.688 446.793-107.844 446.442-101.006 445.747-95.165M535.157 0C528.882 8.975 519.732 13.464 507.706 13.464 502.648 13.464 498.163 12.721 494.241 11.242 490.32 9.759 486.615 7.623 483.13 4.837 478.771 .825 475.418-5.143 473.065-13.072 470.712-21.005 469.535-30.196 469.535-40.654 469.535-48.673 470.36-56.3 472.019-63.53 473.673-70.765 475.896-76.3 478.686-80.132 482.17-84.315 486.353-87.583 491.235-89.936 496.112-92.289 501.341-93.465 506.921-93.465 509.013-93.465 510.491-93.294 511.366-92.942 506.831-104.446 501.21-114.556 494.503-123.269 487.791-131.987 479.47-140.524 469.535-148.891L481.823-167.976C523.653-133.988 544.569-90.941 544.569-38.824 544.569-21.92 541.431-8.979 535.157 0M518.294-63.53C515.941-68.326 512.15-70.72 506.921-70.72 502.04-70.72 498.379-68.498 495.941-64.053 493.498-59.609 492.281-52.68 492.281-43.268 492.281-31.418 493.457-22.79 495.81-17.386 498.163-11.985 501.864-9.281 506.921-9.281 511.104-9.281 514.413-11.111 516.856-14.771 520.165-18.084 521.823-26.712 521.823-40.654 521.823-51.112 520.647-58.738 518.294-63.53M637.901-12.418V10.327H562.344V-12.418H615.156C609.751-22.876 605.045-33.726 601.038-44.968 597.026-56.21 593.672-68.02 590.972-80.393 588.268-92.771 586.136-105.973 584.567-120.001 582.998-134.033 581.953-148.98 581.43-164.839H604.175C604.698-148.458 605.654-133.511 607.051-120.001 608.444-106.496 610.45-93.727 613.064-81.7 615.678-69.674 619.032-58.085 623.13-46.929 627.223-35.777 632.149-24.273 637.901-12.418M729.795-91.112C727.965-83.967 725.567-78.216 722.606-73.857 719.117-68.281 714.632-64.314 709.141-61.962 703.651-59.609 697.507-59.478 690.71-61.569 695.24-50.066 700.861-39.87 707.573-30.981 714.28-22.092 722.606-13.64 732.54-5.621L720.253 13.464C699.162-3.268 683.43-22.398 673.063-43.922 662.691-65.45 657.507-89.372 657.507-115.688 657.507-132.595 660.644-145.537 666.919-154.512 673.193-163.49 682.344-167.976 694.37-167.976 703.782-167.976 711.797-165.1 718.423-159.348 722.953-155.341 726.437-149.373 728.88-141.44 731.319-133.511 732.54-124.315 732.54-113.858 732.54-105.843 731.625-98.261 729.795-91.112M708.619-127.06C707.834-132.379 707.005-136.17 706.135-138.433 703.345-142.967 699.685-145.23 695.154-145.23 693.234-145.23 691.404-144.667 689.664-143.531 687.92-142.4 686.437-141.137 685.22-139.74 683.3-137.477 681.992-134.209 681.298-129.936 680.599-125.667 680.252-120.308 680.252-113.858 680.252-103.4 681.429-95.777 683.782-90.981 686.135-86.19 689.926-83.792 695.154-83.792 704.913-83.792 709.795-92.771 709.795-110.72 709.795-116.3 709.403-121.746 708.619-127.06M824.437-91.112C822.607-83.967 820.209-78.216 817.247-73.857 813.759-68.281 809.273-64.314 803.783-61.962 798.293-59.609 792.149-59.478 785.351-61.569 789.882-50.066 795.503-39.87 802.214-30.981 808.922-22.092 817.247-13.64 827.182-5.621L814.894 13.464C793.803-3.268 778.072-22.398 767.704-43.922 757.332-65.45 752.148-89.372 752.148-115.688 752.148-132.595 755.286-145.537 761.56-154.512 767.835-163.49 776.985-167.976 789.011-167.976 798.423-167.976 806.438-165.1 813.064-159.348 817.594-155.341 821.079-149.373 823.522-141.44 825.96-133.511 827.182-124.315 827.182-113.858 827.182-105.843 826.267-98.261 824.437-91.112M803.26-127.06C802.476-132.379 801.646-136.17 800.776-138.433 797.986-142.967 794.326-145.23 789.796-145.23 787.876-145.23 786.046-144.667 784.306-143.531 782.561-142.4 781.078-141.137 779.861-139.74 777.941-137.477 776.634-134.209 775.939-129.936 775.241-125.667 774.894-120.308 774.894-113.858 774.894-103.4 776.07-95.777 778.423-90.981 780.776-86.19 784.567-83.792 789.796-83.792 799.555-83.792 804.437-92.771 804.437-110.72 804.437-116.3 804.044-121.746 803.26-127.06M922.738-10.719C920.908-5.752 918.335-1.483 915.026 2.092 911.713 5.662 907.746 8.452 903.13 10.458 898.51 12.459 893.498 13.464 888.098 13.464 877.117 13.464 868.183 10.021 861.3 3.137 854.412-3.75 850.622-12.594 849.927-23.399H872.672C873.02-19.044 874.588-15.515 877.378-12.811 880.164-10.11 883.739-8.758 888.098-8.758 892.628-8.758 896.202-10.372 898.817-13.595 901.431-16.822 902.738-21.307 902.738-27.059 902.738-31.418 901.647-35.948 899.47-40.654 897.289-45.36 893.236-51.724 887.313-59.739 880.164-69.151 874.241-77.869 869.535-85.883 864.829-93.902 861.038-101.962 858.162-110.067 855.287-118.171 853.236-126.627 852.019-135.426 850.797-144.23 850.099-154.034 849.927-164.839H922.346V-142.093H875.026C875.373-137.739 875.896-133.948 876.594-130.72 877.289-127.497 878.424-124.144 879.993-120.655 882.779-113.858 886.57-106.145 891.365-97.517 896.157-88.89 901.17-80.393 906.398-72.027 910.406-66.275 913.629-61.308 916.072-57.125 918.51-52.942 920.426-49.196 921.823-45.883 923.216-42.574 924.176-39.478 924.699-36.602 925.222-33.726 925.484-30.548 925.484-27.059 925.484-21.136 924.568-15.686 922.738-10.719M1015.549-10.719C1013.719-5.752 1011.145-1.483 1007.836 2.092 1004.523 5.662 1000.557 8.452 995.941 10.458 991.321 12.459 986.308 13.464 980.908 13.464 969.927 13.464 960.993 10.021 954.11 3.137 947.223-3.75 943.432-12.594 942.738-23.399H965.483C965.83-19.044 967.399-15.515 970.189-12.811 972.975-10.11 976.549-8.758 980.908-8.758 985.438-8.758 989.013-10.372 991.627-13.595 994.241-16.822 995.549-21.307 995.549-27.059 995.549-31.418 994.458-35.948 992.281-40.654 990.099-45.36 986.047-51.724 980.124-59.739 972.975-69.151 967.052-77.869 962.346-85.883 957.64-93.902 953.849-101.962 950.973-110.067 948.097-118.171 946.046-126.627 944.829-135.426 943.608-144.23 942.909-154.034 942.738-164.839H1015.157V-142.093H967.836C968.183-137.739 968.706-133.948 969.404-130.72 970.099-127.497 971.234-124.144 972.803-120.655 975.589-113.858 979.38-106.145 984.176-97.517 988.968-88.89 993.98-80.393 999.209-72.027 1003.216-66.275 1006.439-61.308 1008.882-57.125 1011.321-52.942 1013.237-49.196 1014.634-45.883 1016.027-42.574 1016.987-39.478 1017.51-36.602 1018.032-33.726 1018.294-30.548 1018.294-27.059 1018.294-21.136 1017.379-15.686 1015.549-10.719M1122.869-59.609C1122.869-53.073 1122.563-46.451 1121.954-39.739 1121.341-33.031 1120.255-26.495 1118.686-20.131 1117.117-13.771 1114.85-8.105 1111.889-3.137 1108.923 1.83 1105.046 5.837 1100.255 8.889 1095.459 11.936 1089.491 13.464 1082.346 13.464 1075.548 13.464 1069.797 11.936 1065.091 8.889 1060.385 5.837 1056.504 1.83 1053.457-3.137 1050.405-8.105 1048.052-13.771 1046.398-20.131 1044.739-26.495 1043.522-33.031 1042.738-39.739 1041.953-46.451 1041.471-53.032 1041.3-59.478 1041.124-65.928 1041.038-71.766 1041.038-76.994V-93.857C1041.038-100.222 1041.34-106.758 1041.953-113.465 1042.562-120.177 1043.653-126.758 1045.221-133.204 1046.79-139.654 1049.098-145.406 1052.15-150.459 1055.197-155.516 1059.163-159.569 1064.045-162.616 1068.922-165.664 1075.026-167.191 1082.346-167.191 1089.491-167.191 1095.418-165.664 1100.124-162.616 1104.83-159.569 1108.661-155.516 1111.627-150.459 1114.589-145.406 1116.811-139.654 1118.294-133.204 1119.773-126.758 1120.818-120.177 1121.431-113.465 1122.04-106.758 1122.387-100.222 1122.477-93.857 1122.563-87.497 1122.694-81.876 1122.869-76.994ZM1099.47-86.406C1099.556-90.589 1099.511-95.165 1099.339-100.132 1099.164-105.099 1098.772-110.197 1098.163-115.426 1097.55-120.655 1096.635-125.451 1095.418-129.805 1094.196-134.164 1092.542-137.694 1090.45-140.394 1088.359-143.098 1085.655-144.446 1082.346-144.446 1078.857-144.446 1076.026-143.053 1073.849-140.263 1071.668-137.477 1069.882-133.948 1068.49-129.675 1067.092-125.406 1066.047-120.614 1065.352-115.295 1064.654-109.981 1064.217-104.838 1064.045-99.87 1063.869-94.903 1063.783-90.373 1063.783-86.275V-76.994-67.713C1063.783-63.62 1063.869-59.086 1064.045-54.118 1064.217-49.151 1064.654-44.053 1065.352-38.824 1066.047-33.595 1067.092-28.803 1068.49-24.445 1069.882-20.09 1071.713-16.516 1073.98-13.726 1076.243-10.94 1079.033-9.457 1082.346-9.281 1085.655-9.457 1088.4-10.94 1090.581-13.726 1092.759-16.516 1094.458-20.09 1095.679-24.445 1096.897-28.803 1097.771-33.595 1098.294-38.824 1098.817-44.053 1099.164-49.151 1099.339-54.118 1099.511-59.086 1099.556-63.62 1099.47-67.713 1099.38-71.81 1099.339-74.903 1099.339-76.994 1099.339-79.086 1099.38-82.223 1099.47-86.406" fill="#231f20"/>
</g>
</svg>
